<?xml version="1.0" standalone="no"?>
<!DOCTYPE svg PUBLIC "-//W3C//DTD SVG 20010904//EN"
 "http://www.w3.org/TR/2001/REC-SVG-20010904/DTD/svg10.dtd">
<svg version="1.0" xmlns="http://www.w3.org/2000/svg"
 width="564.000000pt" height="442.000000pt" viewBox="0 0 564.000000 442.000000"
 preserveAspectRatio="xMidYMid meet">

<g transform="translate(0.000000,442.000000) scale(0.100000,-0.100000)"
fill="#000000" stroke="none">
<path d="M3577 4343 c-13 -12 -8 -416 6 -441 14 -26 214 -155 228 -147 12 8
12 431 -1 455 -5 10 -36 33 -67 51 -32 18 -76 46 -97 61 -39 28 -57 34 -69 21z
m109 -149 c51 -34 49 -33 36 -46 -9 -9 -12 -9 -12 0 0 6 -13 18 -29 26 -26 14
-30 14 -35 0 -13 -33 -5 -66 20 -89 37 -34 52 -31 60 12 6 33 8 35 20 18 30
-41 12 -102 -27 -92 -72 18 -132 113 -109 171 12 33 27 33 76 0z m20 -201 c-9
-10 -35 6 -47 28 l-11 22 31 -23 c18 -12 30 -24 27 -27z"/>
<path d="M2283 4158 c-424 -265 -433 -272 -445 -310 -13 -43 -3 -121 17 -138
12 -10 26 -6 70 19 30 17 59 31 65 31 5 0 10 -13 10 -29 0 -36 32 -61 75 -60
29 1 29 1 -5 8 -53 10 -60 18 -60 62 0 39 2 41 83 92 45 30 126 79 179 110 54
32 102 66 108 77 6 11 10 53 8 93 -3 69 -4 72 -28 75 -15 1 -47 -11 -77 -30z
m-318 -342 c-14 -21 -20 -23 -36 -13 -26 16 -24 22 14 44 38 23 48 9 22 -31z"/>
<path d="M2665 4057 c-27 -17 -80 -50 -117 -74 -37 -24 -72 -43 -77 -43 -6 0
-11 -4 -11 -10 0 -5 -5 -10 -11 -10 -6 0 -45 -22 -86 -50 -41 -27 -78 -50 -82
-50 -4 0 -17 -13 -29 -29 -12 -16 -49 -46 -83 -67 -34 -21 -56 -40 -50 -42 8
-3 11 -61 11 -186 l0 -183 -72 -47 c-51 -33 -79 -45 -93 -41 -59 19 -64 17
-197 -66 -378 -235 -419 -262 -406 -271 9 -6 6 -7 -7 -4 -25 7 -101 -45 -110
-74 -6 -20 23 -233 51 -373 8 -42 13 -87 11 -100 l-4 -22 -8 23 c-7 20 -13 22
-89 22 -45 0 -87 -5 -93 -11 -6 -6 -23 -9 -39 -7 -41 4 -41 42 0 46 16 2 33
-1 39 -7 6 -6 46 -11 89 -11 86 0 86 0 72 69 -5 21 -12 31 -25 31 -11 0 -19 5
-19 10 0 6 8 10 19 10 14 0 17 6 14 28 -12 76 -8 72 -77 72 -57 0 -71 -4 -135
-42 -38 -24 -70 -50 -71 -58 0 -37 -56 -54 -80 -25 -20 25 -4 45 36 45 26 0
54 12 103 45 62 42 72 45 132 45 36 0 68 2 71 5 4 5 -21 154 -27 163 -2 2 -29
-10 -61 -27 -33 -16 -73 -33 -91 -36 l-31 -6 5 80 c7 95 -3 116 -45 100 -37
-14 -330 -199 -394 -249 -25 -19 -28 -28 -28 -83 0 -97 6 -100 101 -49 62 34
84 41 93 32 8 -9 3 -19 -24 -41 -37 -31 -44 -36 -390 -248 -132 -80 -222 -142
-232 -158 -15 -24 -18 -53 -18 -184 0 -109 4 -160 13 -171 15 -20 128 -95 406
-268 130 -81 216 -141 219 -153 3 -12 7 -15 12 -7 5 8 24 1 63 -25 31 -21 54
-41 51 -46 -3 -5 -2 -14 2 -21 5 -8 9 -6 14 6 5 16 9 15 40 -6 62 -42 250
-158 255 -158 3 0 5 58 5 128 0 110 3 131 18 144 14 12 171 110 313 196 28 17
52 22 108 22 39 0 71 -4 71 -8 0 -5 -29 -9 -65 -10 -71 -1 -67 2 -225 -100
-52 -34 -119 -76 -147 -93 l-53 -30 0 -134 c0 -130 0 -133 25 -149 13 -9 29
-16 34 -16 6 0 12 52 13 131 l3 132 154 98 c115 74 163 99 187 99 18 0 36 5
39 10 11 17 54 11 65 -10 9 -16 6 -22 -15 -36 -23 -15 -27 -15 -50 0 -13 9
-32 16 -40 16 -9 0 -86 -44 -171 -98 l-154 -97 0 -135 0 -136 30 -17 30 -18 0
83 c0 46 3 106 6 133 l6 50 112 71 c98 63 118 72 169 76 41 3 57 1 57 -8 0 -8
-15 -12 -44 -12 -36 1 -57 -7 -112 -43 -38 -25 -90 -58 -116 -75 l-48 -29 0
-135 0 -136 30 -17 30 -18 2 113 c0 62 2 118 3 123 2 6 3 16 4 23 0 7 39 37
85 67 83 54 85 55 159 55 74 0 78 1 159 52 46 29 86 57 90 63 4 5 8 42 8 81
l0 71 126 78 c130 80 201 112 134 61 -19 -15 -79 -54 -132 -87 l-98 -60 0 -64
c0 -35 -3 -71 -7 -80 -3 -10 -46 -44 -96 -76 -89 -59 -89 -59 -166 -59 -74 -1
-78 -2 -151 -50 -41 -27 -80 -53 -86 -59 -7 -6 -11 -55 -10 -138 l1 -128 49
-32 c26 -18 52 -33 56 -33 5 0 8 17 7 38 0 20 0 80 1 133 l2 95 97 62 c53 34
106 62 116 62 19 0 55 20 183 102 l64 41 0 68 0 67 118 75 c119 75 184 106
151 73 -8 -9 -65 -47 -125 -84 l-109 -68 -3 -69 -3 -70 -119 -77 c-66 -43
-129 -78 -141 -78 -11 0 -63 -28 -115 -61 l-94 -62 0 -137 0 -136 348 -221
c684 -434 719 -456 771 -461 28 -2 60 2 81 10 33 14 355 210 805 490 l200 125
3 134 2 134 -125 79 -125 78 0 53 0 53 -100 61 c-97 60 -123 81 -99 81 13 0
147 -79 196 -116 27 -20 32 -32 35 -72 l3 -47 118 -79 117 -78 0 -129 c0 -71
3 -129 6 -129 3 0 19 7 34 17 33 19 40 48 40 185 l0 97 -117 73 c-65 40 -121
77 -125 83 -4 5 -8 28 -8 50 -1 39 -2 41 -90 94 -98 60 -159 106 -125 94 11
-4 70 -37 131 -75 111 -68 124 -81 124 -135 0 -18 23 -38 103 -89 56 -36 108
-73 115 -82 8 -11 12 -55 12 -134 0 -65 3 -118 6 -118 3 0 19 8 35 17 l29 17
0 132 0 131 -70 47 c-38 25 -80 46 -93 46 -27 0 -47 17 -47 40 0 8 -9 23 -20
33 -11 9 -20 27 -20 39 0 18 -20 35 -85 77 -104 65 -163 111 -143 111 8 0 69
-36 136 -80 102 -67 122 -83 122 -104 0 -28 27 -49 73 -60 18 -4 27 -13 27
-25 0 -13 23 -34 70 -62 l70 -44 0 -127 c0 -137 3 -144 47 -110 21 16 22 26
24 144 1 69 -1 130 -4 135 -3 5 -60 43 -126 84 -66 41 -120 77 -121 82 0 9 37
9 42 -1 2 -4 39 -30 83 -57 158 -98 144 -84 146 -145 1 -30 3 -89 4 -130 2
-41 6 -74 10 -74 3 1 22 10 41 20 l35 19 -3 134 -3 134 -149 93 c-111 70 -159
94 -190 97 -36 3 -35 4 13 5 51 2 60 -2 180 -76 69 -44 136 -84 149 -91 21
-11 22 -17 22 -141 0 -79 4 -130 10 -130 5 0 63 33 127 73 157 97 492 304 623
385 58 36 128 79 155 97 28 17 115 72 195 120 80 49 151 94 158 100 9 8 14 60
17 178 4 165 4 166 -20 196 -14 16 -132 93 -262 172 -131 78 -294 179 -363
224 -69 45 -174 113 -235 150 -158 96 -145 77 -145 224 l0 126 -118 74 c-64
41 -169 107 -232 146 -63 39 -164 102 -223 140 -75 47 -111 65 -118 58 -11
-11 -6 -16 86 -78 50 -33 336 -217 496 -318 l86 -55 -2 -241 c-1 -132 -4 -243
-7 -247 -4 -3 -17 0 -30 7 -12 7 -27 12 -31 11 -11 -3 -67 30 -67 40 0 4 -19
18 -42 30 -41 21 -48 24 -73 27 -6 0 -30 19 -53 41 -22 22 -46 40 -51 40 -6 0
-17 -15 -25 -33 -16 -38 -66 -84 -116 -105 -51 -21 -135 -12 -163 19 -18 19
-18 20 -2 7 26 -21 51 -8 60 31 9 44 -17 85 -65 105 -40 16 -49 29 -29 41 6 5
4 12 -8 21 -17 13 -17 15 0 28 9 7 17 21 17 30 0 10 5 27 11 38 8 14 8 23 0
31 -7 7 -11 62 -11 147 l0 136 -47 36 c-27 20 -95 64 -153 98 -58 35 -116 71
-129 82 l-25 19 -15 -28 c-8 -15 -14 -40 -12 -55 4 -40 -6 -50 -32 -34 -12 7
-39 16 -60 19 -32 5 -43 1 -70 -22 -62 -55 -140 -63 -219 -22 -33 17 -35 17
-25 1 21 -35 70 -54 134 -55 62 0 63 0 63 -28 l0 -29 -87 4 c-146 5 -243 68
-243 156 0 42 22 84 55 106 18 12 24 23 21 39 -3 12 -8 39 -11 60 -5 34 -8 37
-40 37 -19 0 -35 4 -35 10 0 15 37 31 55 24 10 -4 26 3 43 18 15 14 38 31 51
38 l24 13 -24 13 c-46 25 -121 37 -165 25 -35 -9 -258 -137 -336 -192 -44 -32
-48 -26 -48 74 l0 92 140 85 c209 126 190 105 190 216 l0 94 -27 -1 c-16 0
-50 -14 -78 -32z m45 -99 c0 -32 -7 -37 -176 -143 -97 -60 -180 -111 -185
-113 -5 -2 -9 10 -9 28 0 26 7 35 52 63 28 18 110 69 182 114 72 45 132 82
134 83 1 0 2 -15 2 -32z m-450 -272 c7 -81 21 -88 92 -48 31 18 61 32 67 32 7
0 11 -30 11 -89 l0 -89 -92 -55 c-103 -61 -178 -100 -183 -95 -1 2 -4 82 -6
177 l-4 175 40 28 c57 40 69 34 75 -36z m405 -126 c4 -6 2 -17 -5 -24 -8 -11
-8 -15 2 -19 10 -4 10 -8 -1 -15 -18 -13 -41 -4 -35 13 3 7 0 16 -6 20 -8 5
-8 11 1 21 14 17 35 18 44 4z m139 4 c20 -8 20 -20 1 -28 -20 -7 -68 11 -60
24 7 11 35 13 59 4z m-217 -41 c5 -15 -36 -28 -49 -15 -6 6 -7 15 -3 22 9 14
47 9 52 -7z m128 -73 c-20 -22 -31 -20 -22 5 4 8 14 15 23 15 16 0 16 -2 -1
-20z m-207 -8 c5 -15 -23 -26 -45 -17 -17 6 -17 7 2 21 21 16 37 14 43 -4z
m802 -167 c0 -17 -9 -29 -30 -40 -36 -19 -40 -19 -40 0 0 18 43 65 60 65 5 0
10 -11 10 -25z m-1110 -13 c0 -13 -12 -22 -22 -16 -10 6 -1 24 13 24 5 0 9 -4
9 -8z m-176 -158 c19 -18 20 -26 5 -41 -8 -8 7 -21 53 -49 35 -21 114 -71 176
-111 l112 -74 0 -43 c0 -43 1 -45 65 -86 61 -40 79 -60 54 -60 -6 0 -44 21
-85 46 -72 45 -73 46 -76 92 l-3 47 -168 105 c-159 100 -168 106 -163 132 3
15 1 30 -4 33 -6 3 -10 10 -10 16 0 14 27 11 44 -7z m1027 0 c11 -14 10 -18
-10 -33 -21 -16 -22 -24 -21 -117 1 -54 1 -104 1 -109 -1 -6 -21 -21 -46 -34
-43 -23 -45 -26 -45 -69 0 -31 5 -49 17 -57 15 -11 15 -15 4 -29 -16 -20 -41
-21 -66 -2 -18 13 -18 14 3 32 16 13 22 30 22 60 0 38 3 43 50 72 l50 31 0
111 c0 91 -3 110 -15 110 -15 0 -21 31 -8 43 12 13 50 7 64 -9z m524 5 c4 -5
0 -18 -9 -28 -13 -14 -16 -42 -16 -138 l0 -121 -117 -72 c-65 -40 -123 -79
-130 -87 -14 -18 -17 -283 -3 -283 6 0 37 17 70 37 l60 38 0 86 c0 79 2 88 23
101 96 64 137 88 137 81 0 -4 -34 -30 -76 -56 l-77 -48 7 -78 c4 -55 3 -81 -6
-92 -21 -25 -137 -91 -148 -84 -6 4 -10 67 -10 155 l0 150 38 23 c20 12 76 47
125 77 l87 55 0 119 c0 99 -3 121 -17 131 -25 18 -9 45 26 45 16 0 33 -5 36
-11z m-378 -15 c4 -11 -2 -23 -16 -33 -22 -17 -23 -22 -19 -149 2 -73 0 -132
-4 -132 -9 0 -9 2 -8 150 1 107 0 115 -21 131 -20 15 -21 19 -10 33 18 21 70
21 78 0z m-289 -41 c4 -27 -5 -29 -36 -7 -30 21 -28 36 6 32 19 -2 28 -9 30
-25z m-678 -23 c0 -5 -4 -10 -10 -10 -5 0 -10 5 -10 10 0 6 5 10 10 10 6 0 10
-4 10 -10z m546 -6 c-4 -10 1 -22 11 -30 17 -13 16 -15 -7 -34 -30 -24 -53
-25 -71 -4 -11 14 -9 19 11 35 14 10 28 19 33 19 4 0 7 7 7 15 0 8 5 15 11 15
6 0 8 -7 5 -16z m639 -51 c-6 -61 -5 -71 15 -93 20 -23 20 -25 4 -37 -21 -15
-44 -16 -64 -3 -13 9 -12 13 8 30 21 17 23 28 22 87 -2 85 -2 83 11 83 7 0 8
-22 4 -67z m-111 21 c20 -8 21 -40 1 -48 -8 -3 -15 -18 -16 -33 0 -15 -4 -37
-9 -48 -6 -15 -9 -8 -9 28 -1 33 -6 49 -16 53 -20 8 -19 31 3 43 20 12 25 13
46 5z m-1684 -8 c0 -2 -7 -7 -16 -10 -8 -3 -12 -2 -9 4 6 10 25 14 25 6z m94
-5 c-23 -20 -84 -52 -84 -43 0 5 12 14 26 20 14 7 23 15 21 20 -3 4 6 8 20 9
14 0 21 -2 17 -6z m96 -21 c-14 -10 -27 -16 -30 -13 -6 6 30 33 44 33 6 0 0
-9 -14 -20z m-205 -21 c-1 -21 -55 -60 -55 -40 0 5 10 13 21 16 15 5 18 9 9
15 -9 6 -8 10 6 19 11 6 19 11 20 11 0 0 0 -10 -1 -21z m-70 1 c-3 -5 2 -10
12 -10 11 0 2 -11 -27 -30 -46 -31 -81 -42 -45 -14 11 8 19 21 17 28 -1 7 8
18 20 24 30 14 30 14 23 2z m591 -61 c71 -48 72 -48 78 -103 l7 -54 130 -83
c71 -45 134 -89 138 -97 5 -9 6 -31 4 -51 -4 -28 0 -40 16 -55 41 -37 29 -50
-154 -162 -60 -37 -166 -102 -235 -144 -69 -42 -155 -96 -192 -119 -91 -58
-129 -66 -163 -35 -14 13 -32 24 -40 24 -7 0 -20 6 -27 13 -13 14 -21 17 -39
17 -5 0 -7 5 -3 12 4 6 3 8 -3 5 -15 -9 -118 56 -116 73 3 17 -92 74 -107 65
-6 -3 -10 0 -10 8 0 15 -27 32 -44 28 -11 -2 -26 19 -26 37 0 17 61 53 81 47
9 -3 86 39 185 101 93 59 217 136 277 172 79 49 106 70 102 82 -4 11 5 22 28
35 32 17 35 17 68 0 31 -17 203 -122 327 -202 l53 -34 -3 37 c-3 35 -8 39
-143 124 l-140 88 -3 55 c-3 55 -4 56 -50 83 -71 41 -112 73 -112 90 0 18 16
11 116 -57z m1558 65 c20 -8 21 -33 1 -40 -11 -5 -15 -23 -15 -74 0 -38 -4
-72 -10 -75 -6 -4 -10 20 -10 66 0 55 -4 75 -17 84 -35 26 5 57 51 39z m-1040
-19 c16 -12 17 -17 6 -30 -12 -14 -15 -14 -31 1 -10 9 -15 22 -12 30 6 17 13
17 37 -1z m-916 -6 c-9 -5 -15 -15 -12 -22 3 -8 -6 -18 -18 -25 -13 -6 -42
-23 -65 -37 -24 -14 -43 -24 -43 -21 0 3 20 17 45 32 45 26 58 47 16 24 -12
-6 -21 -8 -21 -5 0 8 92 65 104 65 6 0 3 -5 -6 -11z m-268 -24 c0 -2 -10 -9
-22 -15 -22 -11 -22 -10 -4 4 21 17 26 19 26 11z m1440 -9 c0 -9 -7 -12 -20
-9 -11 3 -17 9 -14 14 8 14 34 10 34 -5z m-1370 -4 c0 -11 -60 -45 -67 -39 -3
3 10 15 28 26 39 24 39 24 39 13z m370 3 c0 -2 -10 -9 -22 -15 -22 -11 -22
-10 -4 4 21 17 26 19 26 11z m-135 -23 c-14 -12 -145 -96 -173 -111 -12 -7
-20 -16 -17 -21 3 -5 0 -12 -6 -16 -8 -5 -9 -3 -4 6 6 9 1 10 -16 5 l-24 -7
23 17 c29 21 216 135 222 135 2 0 0 -4 -5 -8z m782 -7 c3 -9 -2 -23 -10 -33
-8 -9 -17 -33 -20 -52 l-4 -35 -1 36 c-2 25 -9 41 -24 51 -30 20 -18 48 22 48
18 0 33 -6 37 -15z m-927 1 c0 -8 -122 -78 -127 -72 -3 3 3 9 13 13 10 4 39
19 63 35 45 28 51 31 51 24z m184 -34 c-12 -9 -30 -23 -40 -30 -19 -13 -11
-12 31 3 11 4 -2 -7 -29 -24 -26 -18 -50 -30 -53 -27 -3 2 5 10 17 16 12 6 19
14 17 17 -3 2 -16 -1 -29 -8 -36 -19 -15 -1 43 36 58 37 77 45 43 17z m-144 3
c0 -2 -13 -11 -30 -20 -38 -19 -40 -11 -2 9 31 17 32 18 32 11z m1020 -22 c0
-20 -3 -24 -11 -16 -7 7 -9 19 -6 27 10 24 17 19 17 -11z m440 7 c0 -5 -4 -10
-10 -10 -5 0 -10 5 -10 10 0 6 5 10 10 10 6 0 10 -4 10 -10z m-1550 -14 c0 -2
-17 -14 -37 -25 l-38 -21 30 25 c28 23 45 31 45 21z m-10 -31 c0 -2 -10 -9
-22 -15 -22 -11 -22 -10 -4 4 21 17 26 19 26 11z m130 -10 c0 -2 -10 -9 -22
-15 -22 -11 -22 -10 -4 4 21 17 26 19 26 11z m-75 -35 c-3 -5 -12 -10 -18 -10
-7 0 -6 4 3 10 19 12 23 12 15 0z m29 -16 c-18 -14 -18 -15 6 -9 24 6 25 6 5
-10 -28 -23 -55 -37 -55 -29 0 4 8 13 18 21 16 14 16 14 0 9 -26 -8 -22 9 5
22 33 16 44 14 21 -4z m1166 -91 c0 -80 3 -98 18 -109 23 -17 5 -49 -28 -49
-33 0 -50 32 -27 50 17 12 19 26 15 113 -2 77 0 98 10 95 8 -4 12 -33 12 -100z
m997 82 c22 -16 34 -47 24 -63 -6 -10 -38 -15 -72 -13 -12 1 -18 13 -22 39 -2
20 -2 40 0 45 7 12 47 8 70 -8z m-2237 0 c0 -2 -10 -9 -22 -15 -22 -11 -22
-10 -4 4 21 17 26 19 26 11z m0 -46 l-25 -20 25 6 c20 5 22 4 10 -5 -8 -6 -24
-16 -35 -22 -18 -10 -18 -9 -7 4 10 13 10 17 0 20 -8 3 -1 11 17 21 40 22 45
21 15 -4z m-520 1 c0 -5 -4 -10 -10 -10 -5 0 -10 5 -10 10 0 6 5 10 10 10 6 0
10 -4 10 -10z m710 5 c0 -2 -24 -20 -52 -40 -29 -19 -47 -35 -40 -35 7 0 10
-4 7 -10 -9 -14 -159 -110 -164 -104 -3 2 4 11 15 20 19 15 19 16 -1 9 -27 -8
27 38 75 65 19 10 60 37 90 59 52 38 70 47 70 36z m-750 -35 c0 -5 -4 -10 -10
-10 -5 0 -10 5 -10 10 0 6 5 10 10 10 6 0 10 -4 10 -10z m510 -10 c0 -5 -5
-10 -11 -10 -5 0 -7 5 -4 10 3 6 8 10 11 10 2 0 4 -4 4 -10z m1076 -24 c10
-14 21 -23 25 -20 4 2 10 0 14 -6 3 -5 -1 -10 -9 -10 -13 0 -16 -13 -16 -72
l0 -73 45 -30 c25 -16 41 -31 36 -33 -13 -4 -88 46 -95 63 -2 7 -3 46 -1 85 3
72 2 75 -40 105 -20 14 -20 14 1 15 12 0 29 -11 40 -24z m974 5 c0 -6 -4 -13
-10 -16 -5 -3 -10 -41 -10 -85 l0 -78 -73 -46 c-82 -50 -107 -62 -107 -50 1 5
38 30 83 55 l82 46 0 91 c0 82 2 92 17 92 10 0 18 -4 18 -9z m1081 -30 l23
-18 -27 -18 c-23 -15 -32 -16 -57 -5 -36 15 -38 33 -7 48 32 15 42 14 68 -7z
m-979 -47 c-19 -13 -22 -24 -22 -75 l0 -59 -86 -56 c-93 -60 -114 -71 -114
-58 1 5 40 32 88 59 l87 50 3 65 c3 66 16 90 51 90 11 0 9 -5 -7 -16z m-2533
-17 c17 -21 -21 -51 -54 -43 -24 6 -34 34 -18 49 11 12 60 7 72 -6z m3736 -7
c3 -5 -1 -10 -9 -10 -9 0 -16 5 -16 10 0 6 4 10 9 10 6 0 13 -4 16 -10z
m-3682 -17 c-7 -2 -19 -2 -25 0 -7 3 -2 5 12 5 14 0 19 -2 13 -5z m2007 -33
c0 -13 -11 -13 -30 0 -12 8 -11 10 8 10 12 0 22 -4 22 -10z m-46 -87 c124 -78
224 -142 379 -242 l87 -56 -2 -45 -3 -45 -130 -79 c-71 -43 -201 -123 -288
-178 l-159 -99 -136 87 c-75 47 -199 125 -275 173 -76 47 -152 97 -169 111
-28 23 -30 29 -24 66 7 40 10 42 159 133 84 50 211 127 282 171 72 44 136 80
144 80 7 0 68 -34 135 -77z m-424 47 c0 -5 -5 -10 -11 -10 -5 0 -7 5 -4 10 3
6 8 10 11 10 2 0 4 -4 4 -10z m2177 -11 c12 -4 23 -18 25 -30 2 -16 11 -23 31
-25 31 -3 77 -29 77 -43 0 -30 -84 -44 -148 -25 -64 19 -82 38 -75 82 10 63
19 68 90 41z m-1122 -14 c0 -12 -8 -21 -20 -23 -10 -3 -65 -35 -122 -73 -56
-38 -105 -69 -108 -69 -19 0 10 25 92 79 70 46 91 64 86 77 -8 20 14 35 47 32
17 -2 25 -9 25 -23z m755 -11 c0 -21 -27 -29 -55 -16 -27 12 -25 38 3 45 23 5
52 -11 52 -29z m-311 -3 c-32 -5 -70 -22 -118 -54 l-71 -47 -132 0 -132 0 -78
-51 c-43 -29 -81 -50 -84 -47 -2 3 32 29 76 57 l81 51 129 0 129 0 77 50 c66
43 83 50 123 49 l46 -2 -46 -6z m-3483 -27 l24 -17 -26 -13 c-34 -18 -68 -18
-84 1 -10 12 -10 18 0 30 16 20 54 19 86 -1z m159 -14 c0 -17 -35 -25 -72 -15
-24 6 -25 7 -7 20 24 19 79 15 79 -5z m1668 -5 c32 -16 49 -35 32 -35 -8 0
-85 52 -85 57 0 5 0 5 53 -22z m1713 -9 c15 -12 17 -17 6 -28 -7 -7 -22 -13
-35 -13 -12 -1 -47 -18 -77 -38 l-55 -37 -149 0 -150 0 -63 -41 c-35 -23 -66
-39 -69 -37 -2 3 26 24 64 47 l68 41 145 0 144 0 53 35 c28 20 52 42 52 50 0
12 25 34 41 35 3 0 14 -6 25 -14z m499 -15 c15 -6 9 -9 -27 -12 -54 -5 -58 -3
-25 11 27 11 27 11 52 1z m-2270 -53 c5 -5 2 -8 -8 -8 -9 0 -31 14 -49 31
l-33 31 40 -23 c22 -12 44 -26 50 -31z m1905 38 c0 -2 -49 -36 -109 -75 l-109
-71 -157 0 -158 0 -49 -36 c-27 -19 -55 -33 -61 -31 -6 2 14 20 46 40 l57 37
158 0 157 0 100 69 c88 60 125 80 125 67z m770 -6 c0 -5 -4 -10 -9 -10 -6 0
-13 5 -16 10 -3 6 1 10 9 10 9 0 16 -4 16 -10z m-4250 -19 c0 -14 -18 -23 -30
-16 -6 4 -8 11 -5 16 8 12 35 12 35 0z m146 -21 c16 0 27 -8 33 -23 5 -13 31
-38 59 -55 45 -30 55 -32 137 -32 68 0 93 4 107 17 10 9 18 11 18 5 0 -21 -36
-31 -125 -33 -89 -3 -91 -2 -147 35 -31 21 -62 35 -68 31 -17 -11 -60 4 -60
20 0 8 -9 15 -20 15 -12 0 -20 7 -20 16 0 13 7 15 31 10 17 -3 42 -6 55 -6z
m154 -15 c14 -16 10 -18 -14 -9 -9 3 -16 10 -16 15 0 14 16 11 30 -6z m1157
-16 c19 -12 32 -24 29 -26 -5 -5 -76 35 -76 43 0 8 14 3 47 -17z m-1472 -4 c0
-5 -10 -11 -22 -13 -16 -2 -23 2 -23 13 0 11 7 15 23 13 12 -2 22 -7 22 -13z
m1386 -41 c23 -14 38 -28 35 -31 -6 -6 -86 43 -86 52 0 9 10 5 51 -21z m-32
-61 c2 -2 2 -6 -2 -9 -7 -7 -69 29 -87 51 -9 11 68 -25 89 -42z m3066 47 c25
0 37 -36 19 -54 -31 -32 -124 -12 -124 25 0 13 61 39 78 34 8 -3 20 -5 27 -5z
m-4500 -15 c0 -5 -10 -11 -22 -13 -16 -2 -23 2 -23 13 0 11 7 15 23 13 12 -2
22 -7 22 -13z m-490 -27 c15 -22 14 -24 -6 -40 -28 -23 -71 -23 -100 1 -23 19
-24 19 -5 40 27 30 89 29 111 -1z m785 12 c0 -5 -4 -10 -10 -10 -5 0 -10 5
-10 10 0 6 5 10 10 10 6 0 10 -4 10 -10z m3132 -52 l63 -2 -60 -3 c-33 -2 -69
-8 -81 -14 -29 -15 -68 -8 -72 14 -5 25 37 39 65 21 12 -8 51 -15 85 -16z
m-2952 2 c3 -4 14 -10 25 -13 19 -4 18 -5 -2 -6 -12 0 -25 -5 -28 -11 -10 -16
-65 -12 -71 5 -10 25 16 47 45 40 14 -4 28 -10 31 -15z m3210 5 c6 -8 9 -19 5
-25 -8 -13 -58 -13 -70 -1 -6 5 -28 11 -50 14 l-40 4 42 1 c23 1 45 7 48 12 9
15 51 12 65 -5z m-3390 -29 c0 -2 -8 -10 -17 -17 -16 -13 -17 -12 -4 4 13 16
21 21 21 13z m-610 -32 c0 -2 -9 0 -20 6 -11 6 -20 13 -20 16 0 2 9 0 20 -6
11 -6 20 -13 20 -16z m1636 11 c-21 -16 -32 -13 -21 4 3 6 14 11 23 11 15 -1
15 -2 -2 -15z m1715 -12 c13 -16 12 -17 -3 -4 -17 13 -22 21 -14 21 2 0 10 -8
17 -17z m-3301 -29 c0 -2 -9 0 -20 6 -11 6 -20 13 -20 16 0 2 9 0 20 -6 11 -6
20 -13 20 -16z m783 -6 c4 -10 7 -10 14 -1 6 9 19 7 49 -7 49 -21 65 -40 35
-40 -12 0 -21 -4 -21 -10 0 -13 33 -13 47 1 8 8 13 7 19 -2 4 -8 2 -15 -5 -17
-7 -2 -31 -18 -54 -36 -39 -29 -42 -36 -45 -84 -2 -29 -5 -52 -8 -52 -18 0
-44 24 -44 41 0 12 -5 19 -12 16 -7 -2 -12 -13 -11 -23 1 -18 -12 -34 -31 -34
-5 0 -3 7 4 15 7 8 10 22 6 30 -3 9 1 18 9 21 18 7 20 24 2 24 -18 0 -67 -24
-67 -32 0 -5 -5 -8 -11 -8 -6 0 -7 5 -2 13 4 6 8 23 9 37 3 110 2 107 47 134
47 29 63 32 70 14z m3728 -17 l23 -18 -32 -17 c-33 -17 -43 -15 -74 12 -17 14
-17 16 0 28 24 19 56 17 83 -5z m-805 -1 c8 -8 25 -7 56 1 38 10 53 10 94 -4
31 -10 53 -12 59 -6 17 17 50 9 108 -28 l59 -37 -45 -13 c-56 -16 -78 -54 -50
-86 18 -20 18 -20 -27 -14 -43 5 -44 5 -20 -8 22 -13 23 -14 5 -15 -26 0 -65
27 -65 45 0 7 11 27 25 43 24 29 33 62 18 62 -5 0 -15 -15 -23 -33 -18 -38
-79 -72 -115 -63 -34 9 -31 23 6 31 37 8 62 51 38 66 -8 5 -26 9 -41 9 -15 0
-30 5 -33 10 -4 7 -23 1 -52 -15 l-46 -25 -33 21 c-40 24 -42 32 -12 53 26 18
79 21 94 6z m-3716 -62 c0 -13 -17 -9 -55 13 -25 15 -33 24 -24 29 12 8 79
-28 79 -42z m1445 22 c-3 -5 -19 -7 -34 -4 -22 5 -41 -2 -82 -30 l-54 -36
-165 2 -165 2 166 6 165 5 50 32 c33 22 61 33 87 33 22 0 36 -4 32 -10z m84
-9 c12 -8 12 -12 2 -25 -8 -9 -19 -16 -26 -16 -7 0 -18 7 -26 16 -10 13 -10
17 2 25 8 5 19 9 24 9 6 0 16 -4 24 -9z m1865 -27 c24 -9 19 -21 -9 -28 -36
-9 -53 3 -30 21 22 15 19 15 39 7z m366 -23 c0 -24 -49 -66 -95 -81 -58 -19
-155 7 -155 41 0 26 28 49 61 49 22 0 29 -5 29 -20 0 -24 46 -38 69 -21 37 27
77 51 84 51 4 0 7 -9 7 -19z m-2141 -10 c10 -7 8 -12 -10 -24 -28 -20 -58 -4
-38 19 13 16 28 17 48 5z m2575 -18 c19 -9 38 -23 41 -32 7 -18 -20 -41 -47
-41 -10 0 -31 -9 -46 -19 -40 -29 -72 -36 -72 -17 0 10 9 16 21 16 11 0 33 13
48 28 16 15 33 26 40 24 19 -6 12 17 -9 28 -11 6 -20 15 -20 20 0 13 4 13 44
-7z m-2715 -32 c-3 -8 -12 -6 -28 5 -18 13 -20 18 -10 25 16 9 43 -13 38 -30z
m1841 -2 c0 -13 -44 -18 -58 -7 -12 10 -11 14 3 24 13 10 21 10 36 1 10 -6 19
-15 19 -18z m-2196 5 c3 -8 2 -12 -4 -9 -6 3 -10 10 -10 16 0 14 7 11 14 -7z
m575 -7 c13 -16 -4 -37 -30 -37 -27 0 -34 21 -14 37 23 16 30 16 44 0z m2181
-29 c0 -7 -36 -33 -80 -58 -53 -30 -80 -51 -80 -63 0 -30 -45 -67 -83 -67 -41
0 -96 17 -119 37 -20 17 -9 60 23 88 22 21 155 37 179 23 11 -6 9 -7 -7 -3
-18 5 -20 2 -16 -15 7 -26 10 -26 63 10 31 21 39 30 26 30 -32 0 -11 11 30 16
21 3 40 7 43 9 9 9 21 5 21 -7z m-662 -10 c16 -16 15 -25 -4 -32 -22 -9 -60
24 -42 36 18 11 32 10 46 -4z m-2648 -7 c0 -10 -24 -21 -43 -21 -7 0 -3 7 7
15 22 17 36 19 36 6z m990 -2 c0 -22 -70 -40 -133 -34 -86 9 -84 15 4 15 44 0
84 6 99 14 14 8 26 14 28 15 1 1 2 -4 2 -10z m223 -6 c9 -8 -22 -43 -38 -43
-18 0 -26 25 -12 39 12 12 40 15 50 4z m-793 -17 c0 -3 -45 -32 -100 -65
l-101 -61 -92 2 -92 2 95 5 c91 6 98 8 165 50 93 59 125 76 125 67z m2146 -21
c16 -13 17 -16 4 -25 -20 -13 -23 -13 -46 5 -16 13 -17 16 -4 25 20 13 23 13
46 -5z m-986 -5 c0 -5 -2 -10 -4 -10 -3 0 -8 5 -11 10 -3 6 -1 10 4 10 6 0 11
-4 11 -10z m-284 -12 c4 -6 -1 -17 -11 -25 -24 -17 -34 -17 -42 3 -10 26 38
47 53 22z m-116 -23 c0 -8 -4 -15 -10 -15 -5 0 -10 7 -10 15 0 8 5 15 10 15 6
0 10 -7 10 -15z m1310 -27 c0 -14 -41 -19 -56 -7 -14 12 -14 14 1 25 13 10 21
10 36 1 10 -6 19 -15 19 -19z m200 17 c8 -10 39 -15 108 -18 l97 -3 -96 -2
c-83 -2 -100 1 -120 18 -13 10 -19 19 -13 20 6 0 17 -7 24 -15z m-2177 -16
c-4 -16 -8 -17 -14 -7 -6 9 -9 10 -9 1 0 -7 -6 -10 -14 -7 -22 8 -7 34 19 34
19 0 22 -4 18 -21z m857 1 c13 -8 12 -11 -5 -24 -24 -18 -26 -19 -45 -6 -13 9
-12 12 4 25 23 17 26 18 46 5z m2031 -10 c24 -20 24 -20 5 -35 -24 -18 -55
-19 -78 -1 -24 18 -23 23 10 40 35 20 36 20 63 -4z m-2642 -23 c-32 -28 -37
-38 -39 -85 -1 -39 2 -54 14 -58 38 -15 2 -60 -39 -50 -28 7 -35 43 -10 52 11
5 15 22 15 64 0 53 3 61 28 78 24 17 48 29 62 31 3 0 -11 -14 -31 -32z m-798
7 c11 -14 10 -18 -6 -30 -36 -27 -83 -7 -69 30 8 21 57 21 75 0z m2747 -45
l77 -6 -73 -1 c-60 -2 -79 2 -103 19 -16 11 -29 25 -29 31 0 7 12 1 26 -13 21
-20 40 -25 102 -30z m-320 29 c16 -16 15 -25 -4 -32 -22 -9 -60 24 -42 36 18
11 32 10 46 -4z m-929 -12 c9 -11 5 -17 -21 -29 -38 -19 -57 -3 -31 25 19 22
37 23 52 4z m1491 -21 c24 -8 27 -25 4 -25 -12 0 -49 15 -62 25 -1 1 0 9 4 18
5 14 8 15 20 2 8 -7 23 -17 34 -20z m-1700 11 c-8 -8 -62 -43 -120 -78 l-105
-64 -3 -65 c-2 -54 1 -69 18 -89 20 -23 20 -25 4 -37 -39 -29 -90 -1 -58 32
17 17 20 29 23 120 l1 50 117 73 c111 69 155 89 123 58z m-1450 -30 c-17 -17
-11 -27 9 -16 14 7 22 7 26 -1 7 -10 -22 -38 -40 -39 -11 0 -75 37 -75 44 0 2
14 13 32 24 24 16 36 18 46 10 9 -8 10 -14 2 -22z m3426 4 c21 0 34 -6 38 -17
8 -19 -9 -33 -40 -33 -22 0 -48 22 -38 33 3 3 -3 12 -15 19 -12 7 -21 16 -21
21 0 4 10 1 22 -7 12 -9 37 -16 54 -16z m-1893 0 c-3 -13 -40 -41 -94 -72
l-89 -52 -1 -61 c0 -49 -2 -56 -11 -38 -6 12 -8 41 -4 65 6 42 10 46 87 92 45
27 89 57 97 67 20 24 21 24 15 -1z m-673 -11 c0 -5 -7 -9 -15 -9 -15 0 -20 12
-9 23 8 8 24 -1 24 -14z m1645 4 c16 -16 16 -17 -6 -25 -30 -11 -64 17 -39 32
21 13 26 12 45 -7z m232 -12 c41 -29 42 -30 188 -30 146 -1 147 -1 183 -29 20
-16 44 -32 52 -35 12 -4 11 -6 -3 -6 -9 -1 -36 13 -59 29 -41 30 -41 30 -181
30 -140 0 -140 0 -189 31 -26 17 -48 33 -48 35 0 10 21 1 57 -25z m-997 -5 c0
-15 -38 -38 -50 -31 -16 10 -12 33 7 43 20 11 43 5 43 -12z m690 -46 c0 -5 -8
-14 -19 -19 -14 -8 -22 -6 -35 8 -16 18 -16 20 1 29 19 11 53 -1 53 -18z
m-825 1 c-3 -6 -33 -27 -68 -47 -96 -57 -97 -59 -97 -128 l0 -61 -61 -38 -61
-37 4 -164 c3 -142 5 -167 21 -184 11 -12 16 -26 12 -31 -9 -16 -61 -13 -75 3
-9 12 -7 17 9 28 20 12 21 22 21 185 l0 172 58 38 c31 21 58 44 58 51 1 6 2
36 3 65 l1 52 83 52 c80 51 104 62 92 44z m208 2 c11 -10 -13 -33 -34 -33 -21
0 -26 26 -6 33 18 8 33 8 40 0z m515 -45 c16 -16 15 -25 -4 -32 -19 -7 -44 10
-44 30 0 17 32 18 48 2z m1017 2 c9 -14 -13 -40 -34 -40 -10 0 -26 7 -37 15
-16 13 -17 16 -4 25 20 13 67 13 75 0z m-1451 -9 c3 -4 -3 -16 -14 -26 -16
-15 -22 -15 -35 -5 -12 10 -13 16 -4 26 13 16 45 19 53 5z m-1965 -41 c0 -9
-2 -11 -5 -3 -3 7 -11 10 -17 7 -7 -2 -13 4 -14 15 -2 18 1 19 18 8 10 -6 19
-19 18 -27z m1751 19 c-8 -5 -46 -28 -85 -51 l-70 -43 -5 -117 c-3 -64 -8
-120 -12 -124 -5 -4 -8 49 -8 117 l0 125 43 24 c23 13 64 38 91 56 28 19 52
31 55 28 3 -3 -1 -10 -9 -15z m1155 11 c-3 -5 -13 -10 -21 -10 -8 0 -14 5 -14
10 0 6 9 10 21 10 11 0 17 -4 14 -10z m-2967 -47 c5 -18 -23 -16 -39 3 -11 14
-10 15 11 12 13 -1 25 -9 28 -15z m2108 6 c3 -6 0 -15 -7 -20 -22 -13 -49 -11
-49 5 0 23 43 35 56 15z m248 5 c22 -8 20 -21 -5 -35 -25 -13 -45 1 -36 25 7
17 16 19 41 10z m-2299 -22 c-3 -3 -11 0 -18 7 -9 10 -8 11 6 5 10 -3 15 -9
12 -12z m1867 -14 c-6 -6 -40 -28 -74 -48 -59 -34 -63 -39 -70 -81 -13 -89 -9
-155 12 -181 22 -29 11 -48 -27 -48 -30 0 -42 29 -20 45 13 9 17 34 19 120 l3
108 75 48 c72 46 107 62 82 37z m646 -57 c49 -31 52 -35 52 -72 0 -35 -4 -42
-35 -60 l-35 -21 0 -128 c0 -104 3 -129 15 -134 24 -9 17 -35 -11 -42 -18 -5
-31 -1 -42 10 -16 16 -16 18 3 32 17 13 19 25 16 139 l-2 125 35 21 c31 18 36
26 36 57 0 34 -5 40 -60 76 -33 21 -63 43 -67 50 -4 6 4 4 17 -5 14 -9 49 -31
78 -48z m-1084 -10 c7 -10 -17 -21 -42 -21 -15 1 -14 3 2 15 23 17 33 19 40 6z
m351 -30 c-3 -6 -11 -8 -17 -5 -6 4 -5 9 3 15 16 10 23 4 14 -10z m-554 -60
l23 -18 -32 -17 c-29 -15 -34 -15 -63 -1 -30 16 -30 17 -13 36 22 24 55 24 85
0z m-321 -61 c0 -5 -7 -10 -16 -10 -8 0 -12 5 -9 10 3 6 10 10 16 10 5 0 9 -4
9 -10z m1230 -18 c0 -4 -20 -19 -45 -34 -25 -15 -45 -32 -45 -38 0 -6 15 -19
33 -31 40 -25 85 -20 139 16 31 21 39 23 44 11 10 -27 0 -48 -39 -80 -37 -29
-43 -31 -126 -31 -87 0 -88 -1 -162 -46 l-74 -46 3 -49 c4 -63 -20 -96 -85
-118 -48 -16 -133 -22 -133 -8 0 4 23 22 50 41 28 18 50 39 50 46 0 16 -71 45
-110 45 -20 0 -47 -14 -84 -44 -59 -49 -66 -46 -66 18 0 74 65 110 194 108
l78 -2 94 56 c80 48 93 60 89 78 -9 37 29 83 82 100 52 16 113 21 113 8z
m-1021 -89 l24 -16 -23 -19 c-27 -22 -58 -23 -85 -2 -20 15 -20 15 4 35 29 23
49 24 80 2z m1560 -30 l24 -16 -23 -19 c-28 -22 -44 -23 -76 -1 l-26 17 24 18
c29 22 47 23 77 1z m-1421 -101 c3 -9 -2 -13 -14 -10 -9 1 -19 9 -22 16 -3 9
2 13 14 10 9 -1 19 -9 22 -16z m1000 -168 c26 -18 28 -30 6 -38 -10 -4 -13 -2
-8 6 11 18 -25 39 -47 27 -26 -14 -24 -26 9 -37 22 -9 23 -11 6 -11 -28 -1
-59 23 -50 38 7 11 40 28 56 30 3 1 16 -6 28 -15z m-350 -195 c60 -21 42 -69
-26 -69 -46 0 -65 12 -60 36 2 14 36 41 54 44 1 0 15 -5 32 -11z"/>
<path d="M3000 3090 c0 -5 7 -10 15 -10 8 0 15 5 15 10 0 6 -7 10 -15 10 -8 0
-15 -4 -15 -10z"/>
<path d="M2900 2670 c0 -5 7 -10 15 -10 8 0 15 5 15 10 0 6 -7 10 -15 10 -8 0
-15 -4 -15 -10z"/>
<path d="M3525 3100 c-3 -5 3 -10 15 -10 12 0 18 5 15 10 -3 6 -10 10 -15 10
-5 0 -12 -4 -15 -10z"/>
<path d="M3145 3090 c-3 -5 1 -10 10 -10 9 0 13 5 10 10 -3 6 -8 10 -10 10 -2
0 -7 -4 -10 -10z"/>
<path d="M3395 2860 c-3 -5 1 -10 10 -10 9 0 13 5 10 10 -3 6 -8 10 -10 10 -2
0 -7 -4 -10 -10z"/>
<path d="M3260 2970 c0 -5 7 -10 15 -10 8 0 15 5 15 10 0 6 -7 10 -15 10 -8 0
-15 -4 -15 -10z"/>
<path d="M1505 2920 c-3 -5 -2 -10 4 -10 5 0 13 5 16 10 3 6 2 10 -4 10 -5 0
-13 -4 -16 -10z"/>
<path d="M1759 2472 c-164 -103 -308 -194 -320 -203 -24 -16 -24 -16 76 -81
155 -100 130 -97 242 -27 206 130 332 209 436 274 59 37 107 71 105 76 -3 9
-226 149 -237 149 -3 -1 -139 -85 -302 -188z"/>
<path d="M2090 2336 c-19 -13 -70 -45 -113 -71 l-78 -48 66 -39 c74 -44 94
-45 43 -3 -18 15 -39 37 -47 48 -13 19 -13 20 4 13 11 -4 16 -4 12 0 -8 8 130
103 151 104 19 0 63 -31 56 -41 -3 -5 3 -6 12 -2 12 4 15 3 10 -5 -5 -8 -2
-10 9 -6 9 4 15 2 13 -4 -2 -5 0 -10 5 -11 39 -5 32 6 -28 44 -38 24 -72 44
-75 44 -3 0 -21 -11 -40 -23z"/>
<path d="M3650 2920 c0 -5 7 -7 15 -4 8 4 15 8 15 10 0 2 -7 4 -15 4 -8 0 -15
-4 -15 -10z"/>
<path d="M1685 2890 c-3 -6 1 -7 9 -4 18 7 21 14 7 14 -6 0 -13 -4 -16 -10z"/>
<path d="M1592 2543 c-29 -20 -50 -38 -48 -41 3 -2 26 10 51 27 25 17 50 31
56 31 5 0 9 5 9 10 0 16 -11 11 -68 -27z"/>
<path d="M4584 2549 c-7 -12 12 -29 32 -29 15 0 36 25 27 33 -10 11 -51 8 -59
-4z"/>
<path d="M1090 2480 c0 -5 5 -10 10 -10 6 0 10 5 10 10 0 6 -4 10 -10 10 -5 0
-10 -4 -10 -10z"/>
<path d="M3000 2408 c-8 -5 -134 -82 -280 -172 l-265 -163 0 -38 0 -38 289
-183 c159 -101 291 -184 294 -184 2 0 56 33 120 73 64 39 190 117 281 173 159
96 166 102 169 135 3 38 22 24 -368 269 -226 143 -221 140 -240 128z m65 -116
c-15 -14 -91 -56 -80 -45 22 22 68 53 78 53 7 0 7 -3 2 -8z m-70 -12 c-3 -5
-11 -10 -16 -10 -6 0 -7 5 -4 10 3 6 11 10 16 10 6 0 7 -4 4 -10z m-65 -9 c0
-5 -7 -12 -16 -15 -9 -4 -14 -9 -11 -12 3 -3 16 -1 29 6 23 11 23 11 -2 -10
-14 -13 -26 -17 -28 -11 -2 6 -11 11 -20 11 -13 0 -11 5 8 20 27 21 40 25 40
11z m265 -21 c-4 -6 -25 -20 -48 -31 -46 -24 -45 -19 5 17 35 25 53 30 43 14z
m-335 -25 c0 -2 -18 -14 -40 -25 -22 -11 -40 -17 -40 -13 1 13 80 51 80 38z
m85 -5 c-3 -5 -12 -10 -18 -10 -7 0 -6 4 3 10 19 12 23 12 15 0z m310 -1 c-11
-6 -37 -23 -58 -37 -20 -14 -40 -22 -43 -19 -6 6 95 67 111 67 6 -1 1 -6 -10
-11z m-420 -40 c-38 -25 -93 -54 -80 -42 19 19 90 63 100 63 5 0 -3 -9 -20
-21z m74 17 c-19 -19 -114 -76 -122 -73 -10 3 101 76 117 77 5 0 7 -2 5 -4z
m111 -14 c0 -5 -12 -15 -27 -23 -46 -22 -49 -21 -18 5 31 27 45 32 45 18z
m-260 -22 c-24 -15 -37 -11 -16 5 11 8 22 12 25 9 3 -3 -1 -9 -9 -14z m300 16
c0 -2 -22 -18 -50 -35 -27 -17 -50 -27 -50 -23 1 13 100 71 100 58z m80 -31
c0 -8 -82 -47 -87 -41 -3 2 12 14 34 25 39 20 53 25 53 16z m-435 -15 c-3 -5
-11 -10 -16 -10 -6 0 -7 5 -4 10 3 6 11 10 16 10 6 0 7 -4 4 -10z m235 6 c0
-6 -65 -46 -74 -46 -10 0 15 24 39 38 21 12 35 15 35 8z m-204 -15 c-8 -12
-87 -53 -93 -47 -3 2 12 12 31 21 20 10 39 21 42 26 3 5 10 9 15 9 6 0 8 -4 5
-9z m583 5 c-2 -2 -20 -11 -39 -20 l-35 -17 24 21 c13 11 30 20 39 20 8 0 13
-2 11 -4z m-649 -14 c0 -9 -44 -32 -58 -32 -9 1 41 39 51 40 4 0 7 -4 7 -8z
m344 -7 c-10 -8 -25 -15 -33 -15 -11 0 -9 4 5 15 10 8 25 15 33 15 11 0 9 -4
-5 -15z m-254 -6 c-33 -22 -92 -50 -97 -45 -3 2 17 16 44 30 48 25 81 35 53
15z m329 -18 c-32 -24 -70 -44 -75 -38 -6 6 68 56 85 56 8 1 3 -7 -10 -18z
m221 11 c0 -5 -11 -14 -25 -20 -29 -13 -33 -5 -7 14 20 15 32 18 32 6z m-400
-12 c-8 -5 -19 -10 -25 -10 -5 0 -3 5 5 10 8 5 20 10 25 10 6 0 3 -5 -5 -10z
m77 -26 c-1 0 -15 -4 -32 -8 -29 -7 -29 -7 -10 8 23 18 13 21 -16 6 -10 -6
-19 -7 -19 -2 0 5 10 13 22 19 16 7 26 6 40 -6 9 -8 16 -16 15 -17z m243 22
c0 -8 -71 -48 -76 -43 -3 2 10 14 28 26 32 20 48 26 48 17z m-10 -41 c-31 -23
-50 -31 -50 -21 0 6 64 46 74 46 6 0 -5 -11 -24 -25z m-500 11 c0 -2 -7 -6
-15 -10 -8 -3 -15 -1 -15 4 0 6 7 10 15 10 8 0 15 -2 15 -4z m50 -12 c0 -8 -4
-13 -8 -10 -4 2 -14 1 -22 -5 -12 -7 -12 -9 3 -9 11 0 15 -5 11 -11 -4 -7 -11
-6 -22 5 -15 14 -14 17 3 31 26 19 35 19 35 -1z m110 6 c0 -5 -2 -10 -4 -10
-3 0 -8 5 -11 10 -3 6 -1 10 4 10 6 0 11 -4 11 -10z m200 5 c0 -2 -15 -12 -32
-20 l-33 -16 25 20 c24 20 40 26 40 16z m320 -9 c0 -8 -73 -47 -77 -42 -3 3
10 14 28 25 33 20 49 26 49 17z m-310 -21 c-33 -19 -49 -19 -24 0 10 8 26 14
34 14 9 0 4 -6 -10 -14z m150 0 c0 -6 -56 -35 -67 -35 -13 1 41 40 55 40 6 0
12 -2 12 -5z m-225 -15 c3 -5 2 -10 -4 -10 -5 0 -13 5 -16 10 -3 6 -2 10 4 10
5 0 13 -4 16 -10z m90 0 c-3 -5 -12 -10 -18 -10 -7 0 -6 4 3 10 19 12 23 12
15 0z m30 -20 c-19 -21 -35 -26 -35 -12 0 5 10 14 23 20 31 15 32 14 12 -8z
m230 0 c-16 -11 -34 -20 -40 -20 -16 1 38 40 55 40 8 0 2 -9 -15 -20z m-550
-29 c-6 -5 -25 10 -25 20 0 5 6 4 14 -3 8 -7 12 -15 11 -17z m240 11 c-3 -3
-11 0 -18 7 -9 10 -8 11 6 5 10 -3 15 -9 12 -12z m225 -2 c0 -5 -26 -23 -57
-39 -32 -17 -71 -39 -88 -50 -16 -12 -34 -21 -40 -21 -5 0 -3 5 5 10 12 8 13
11 1 19 -10 6 -5 13 20 25 l32 16 -19 -21 c-15 -17 -7 -15 41 11 33 18 69 39
80 46 23 17 25 17 25 4z m-127 -15 c-6 -17 -25 -15 -31 3 -2 7 5 12 17 12 14
0 19 -5 14 -15z m152 -5 c-9 -14 18 -13 33 2 6 6 14 9 18 6 3 -4 -6 -14 -21
-24 -21 -14 -28 -15 -35 -5 -5 10 -18 6 -50 -14 -23 -14 -44 -24 -46 -22 -5 5
85 65 99 66 5 1 5 -3 2 -9z m-445 -28 c0 -10 -50 -35 -57 -28 -3 2 8 11 24 20
34 18 33 18 33 8z m429 -15 c-2 -2 -17 -13 -33 -25 -15 -12 -33 -19 -38 -16
-5 4 8 17 29 29 21 13 40 22 42 19 2 -2 2 -5 0 -7z m-354 -17 c3 -5 1 -10 -4
-10 -6 0 -11 5 -11 10 0 6 2 10 4 10 3 0 8 -4 11 -10z m250 -9 c-7 -12 -119
-81 -131 -81 -10 0 117 88 129 89 5 1 6 -3 2 -8z m-220 -11 c3 -5 1 -10 -4
-10 -6 0 -11 5 -11 10 0 6 2 10 4 10 3 0 8 -4 11 -10z m115 5 c0 -8 -61 -37
-67 -32 -3 3 8 12 24 21 29 16 43 19 43 11z m120 -20 c0 -2 -10 -9 -22 -15
-22 -11 -22 -10 -4 4 21 17 26 19 26 11z m-225 -25 c3 -5 -1 -10 -9 -10 -9 0
-16 5 -16 10 0 6 4 10 9 10 6 0 13 -4 16 -10z m175 -4 c0 -3 -4 -8 -10 -11 -5
-3 -10 -1 -10 4 0 6 5 11 10 11 6 0 10 -2 10 -4z m-40 -26 c-8 -5 -19 -10 -25
-10 -5 0 -3 5 5 10 8 5 20 10 25 10 6 0 3 -5 -5 -10z m31 -20 c-25 -21 -41
-26 -41 -12 0 9 38 30 55 31 6 0 -1 -9 -14 -19z"/>
<path d="M4485 2370 c-3 -5 -4 -10 -1 -10 2 0 11 -3 20 -6 11 -4 16 -1 16 10
0 18 -25 22 -35 6z"/>
<path d="M680 2320 c0 -5 7 -10 16 -10 8 0 12 5 9 10 -3 6 -10 10 -16 10 -5 0
-9 -4 -9 -10z"/>
<path d="M845 2320 c-3 -5 1 -10 10 -10 9 0 13 5 10 10 -3 6 -8 10 -10 10 -2
0 -7 -4 -10 -10z"/>
<path d="M4250 2290 c0 -5 5 -10 10 -10 6 0 10 5 10 10 0 6 -4 10 -10 10 -5 0
-10 -4 -10 -10z"/>
<path d="M1075 2200 c3 -5 8 -10 11 -10 2 0 4 5 4 10 0 6 -5 10 -11 10 -5 0
-7 -4 -4 -10z"/>
<path d="M5280 2105 c0 -10 10 -15 30 -15 20 0 30 5 30 15 0 10 -10 15 -30 15
-20 0 -30 -5 -30 -15z"/>
<path d="M275 2090 c-4 -7 -3 -16 3 -22 14 -14 47 -6 47 12 0 18 -40 26 -50
10z"/>
<path d="M4146 2062 c-3 -6 -1 -14 5 -17 15 -10 25 3 12 16 -7 7 -13 7 -17 1z"/>
<path d="M1266 2051 c-3 -5 1 -11 9 -15 15 -6 29 7 18 18 -9 9 -21 8 -27 -3z"/>
<path d="M4480 2050 c0 -5 6 -10 14 -10 8 0 18 5 21 10 3 6 -3 10 -14 10 -12
0 -21 -4 -21 -10z"/>
<path d="M1385 1950 c-3 -5 3 -10 15 -10 12 0 18 5 15 10 -3 6 -10 10 -15 10
-5 0 -12 -4 -15 -10z"/>
<path d="M5025 1950 c-10 -16 4 -30 29 -30 29 0 39 10 25 27 -13 15 -45 17
-54 3z"/>
<path d="M4510 1933 c1 -14 49 -43 55 -33 3 5 -8 16 -25 25 -16 8 -30 12 -30
8z"/>
<path d="M4144 1655 c-9 -23 5 -35 40 -35 39 0 62 20 44 38 -17 17 -77 15 -84
-3z"/>
<path d="M4480 1610 c-13 -9 -13 -11 0 -20 20 -13 47 -13 56 1 7 11 -12 29
-31 29 -5 0 -17 -5 -25 -10z"/>
<path d="M1835 1430 c3 -5 11 -10 16 -10 6 0 7 5 4 10 -3 6 -11 10 -16 10 -6
0 -7 -4 -4 -10z"/>
<path d="M1055 1599 c-10 -15 1 -23 20 -15 9 3 13 10 10 16 -8 13 -22 13 -30
-1z"/>
<path d="M4355 1520 c-3 -5 1 -10 9 -10 9 0 16 5 16 10 0 6 -4 10 -9 10 -6 0
-13 -4 -16 -10z"/>
<path d="M4237 1424 c-11 -11 3 -24 18 -18 8 4 12 10 9 15 -6 11 -18 12 -27 3z"/>
<path d="M2565 1010 c-3 -5 1 -10 10 -10 9 0 13 5 10 10 -3 6 -8 10 -10 10 -2
0 -7 -4 -10 -10z"/>
<path d="M3351 851 c-8 -6 -9 -11 -3 -15 6 -3 14 -1 17 5 9 14 2 20 -14 10z"/>
<path d="M2025 1180 c-16 -25 25 -40 55 -20 13 9 13 11 0 20 -19 13 -47 13
-55 0z"/>
<path d="M1917 1009 c-14 -8 -16 -14 -6 -25 6 -8 20 -14 31 -14 23 0 36 29 17
41 -17 11 -20 11 -42 -2z"/>
<path d="M3476 971 c-3 -5 1 -14 8 -21 17 -13 61 4 51 21 -8 11 -52 12 -59 0z"/>
<path d="M2721 501 c-19 -12 -4 -31 25 -31 27 0 33 24 8 34 -19 7 -16 8 -33
-3z"/>
<path d="M4788 3658 c-10 -47 -1 -394 11 -416 14 -26 61 -62 119 -92 75 -37
74 -38 67 192 -3 112 -8 212 -10 223 -4 19 -147 115 -172 115 -6 0 -13 -10
-15 -22z m110 -164 c10 -16 23 -33 30 -37 13 -8 15 -70 4 -98 -6 -15 -14 -12
-60 17 -56 36 -72 63 -72 120 0 31 3 35 20 29 11 -4 20 -2 20 4 0 20 42 -5 58
-35z"/>
<path d="M4830 3482 c0 -11 6 -25 14 -31 8 -7 17 -23 20 -36 8 -30 26 -33 26
-5 0 13 5 18 15 14 8 -4 15 -1 15 5 0 7 -7 14 -15 17 -8 4 -15 14 -15 24 0 22
-22 39 -28 21 -3 -9 -7 -9 -18 0 -11 9 -14 7 -14 -9z"/>
<path d="M2993 3640 c-62 -37 -57 -107 10 -142 82 -42 214 -25 251 34 17 28
-35 75 -101 89 -29 7 -53 17 -53 24 0 20 -72 16 -107 -5z"/>
<path d="M3263 3463 c0 -9 4 -10 13 -2 15 13 51 -3 75 -33 14 -18 17 -19 22
-4 11 28 -28 57 -72 55 -23 -2 -38 -8 -38 -16z"/>
<path d="M465 3352 c-182 -112 -182 -113 -189 -152 -9 -52 -7 -143 3 -159 11
-17 38 -8 81 30 22 20 30 33 23 36 -7 3 -13 17 -13 32 0 19 8 32 30 44 16 10
33 29 36 43 9 37 34 30 34 -10 0 -25 -6 -38 -25 -50 -14 -9 -25 -23 -25 -31 0
-12 14 -8 63 16 120 61 117 56 117 170 0 73 -3 99 -12 99 -7 0 -62 -31 -123
-68z"/>
<path d="M3809 3298 c-1 -29 -2 -120 -3 -203 l-1 -150 50 3 c63 3 113 -24 122
-68 6 -33 15 -37 33 -15 32 38 77 0 88 -75 l7 -54 75 -48 c41 -26 109 -68 150
-93 l75 -45 3 207 3 208 -25 20 c-13 11 -67 47 -120 80 -52 33 -173 111 -268
172 -95 62 -176 113 -180 113 -5 0 -9 -24 -9 -52z m41 -4 c0 -17 -22 -14 -28
4 -2 7 3 12 12 12 9 0 16 -7 16 -16z m48 -40 c-10 -10 -28 6 -28 24 0 15 1 15
17 -1 9 -9 14 -19 11 -23z m51 -30 c3 -16 1 -17 -13 -5 -19 16 -21 34 -3 29 6
-3 14 -13 16 -24z m-47 -36 c119 -70 192 -122 180 -126 -13 -4 -242 137 -242
150 0 12 4 11 62 -24z m98 6 c0 -16 -16 -19 -25 -4 -8 13 4 32 16 25 5 -4 9
-13 9 -21z m-129 -70 c15 -18 21 -44 10 -44 -15 0 -51 32 -51 46 0 19 24 18
41 -2z m68 -40 c15 -11 19 -20 13 -26 -12 -12 -28 -4 -42 23 -13 23 -2 24 29
3z m126 -92 c-3 -3 -11 0 -18 7 -9 10 -8 11 6 5 10 -3 15 -9 12 -12z m-205
-22 c0 -5 -2 -10 -4 -10 -3 0 -8 5 -11 10 -3 6 -1 10 4 10 6 0 11 -4 11 -10z
m510 -226 c0 -2 -9 0 -20 6 -11 6 -20 13 -20 16 0 2 9 0 20 -6 11 -6 20 -13
20 -16z"/>
<path d="M425 3016 c-139 -88 -142 -92 -144 -181 -1 -81 7 -85 87 -37 39 23
73 42 76 42 14 0 127 83 136 100 17 31 9 154 -10 157 -8 1 -73 -35 -145 -81z
m113 -31 c-3 -3 -9 2 -12 12 -6 14 -5 15 5 6 7 -7 10 -15 7 -18z m-78 -86 c0
-6 -4 -7 -10 -4 -5 3 -10 11 -10 16 0 6 5 7 10 4 6 -3 10 -11 10 -16z m-39 -6
c13 -16 12 -17 -3 -4 -10 7 -18 15 -18 17 0 8 8 3 21 -13z"/>
<path d="M5045 2928 c-3 -8 -4 -63 -3 -123 l3 -109 73 -48 c70 -47 72 -49 73
-91 l1 -42 9 33 c5 17 13 32 17 32 5 0 26 -13 49 -30 22 -16 51 -31 64 -32 24
-3 24 -2 27 111 2 73 -1 118 -9 127 -10 13 -146 98 -251 159 -38 21 -49 24
-53 13z m79 -126 c2 -4 1 -14 -4 -22 -5 -8 -3 -27 6 -48 16 -40 -2 -41 -25 -1
-21 37 1 105 23 71z m90 -60 c15 -34 15 -41 3 -66 l-15 -28 -26 38 c-29 42
-31 56 -16 84 14 26 34 16 54 -28z m71 -63 c18 -34 14 -59 -9 -59 -21 0 -30
19 -16 35 6 8 9 23 5 35 -10 30 2 24 20 -11z"/>
<path d="M3865 2820 c-3 -6 1 -13 10 -16 19 -8 30 0 20 15 -8 14 -22 14 -30 1z"/>
<path d="M3786 2758 c7 -11 92 -10 99 1 3 6 -18 9 -49 8 -30 -1 -52 -5 -50 -9z"/>
<path d="M925 2480 c4 -6 11 -8 16 -5 14 9 11 15 -7 15 -8 0 -12 -5 -9 -10z"/>
<path d="M1060 2370 c0 -5 10 -10 23 -10 18 0 19 2 7 10 -19 13 -30 13 -30 0z"/>
<path d="M3820 1220 c0 -5 5 -10 10 -10 6 0 10 5 10 10 0 6 -4 10 -10 10 -5 0
-10 -4 -10 -10z"/>
</g>
</svg>
